<?xml version="1.0" encoding="UTF-8" standalone="no"?>
<!-- Created with Inkscape (http://www.inkscape.org/) -->

<svg
   width="83.303978mm"
   height="87.56868mm"
   viewBox="0 0 83.303978 87.56868"
   version="1.1"
   id="svg1"
   xml:space="preserve"
   xmlns="http://www.w3.org/2000/svg"
   xmlns:svg="http://www.w3.org/2000/svg"><defs
     id="defs1" /><g
     id="layer1"
     transform="translate(-51.621939,-66.074934)"><g
       id="g10"><path
         id="path1"
         style="fill:#000000;stroke-width:2.4;stroke-dasharray:none"
         d="m 92.438285,66.075037 c -3.345895,0.0061 -6.666845,0.273847 -7.208345,0.7984 -0.16876,0.163478 -1.018421,2.560962 -1.888257,5.327841 l -1.581299,5.0307 -1.241268,0.449069 c -2.936462,1.062427 -7.399649,3.635659 -9.832475,5.668904 l -1.020092,0.852661 -5.151624,-1.142049 c -2.833335,-0.628129 -5.328872,-1.091631 -5.545398,-1.029911 -1.43848,0.410051 -7.664764,11.14406 -7.334953,12.645223 0.03841,0.174823 1.651035,2.050778 3.583761,4.168738 1.932727,2.117957 3.542539,3.900297 3.577559,3.960997 0.03503,0.0607 -0.06244,0.95284 -0.216524,1.98231 -0.509176,3.40198 -0.48319,7.42902 0.06821,10.64793 l 0.239779,1.40146 -2.304769,2.52388 c -4.52289,4.95208 -4.901067,5.40197 -4.922697,5.85959 -0.07728,1.6351 5.683909,11.61348 7.138582,12.3641 0.407127,0.21008 0.985904,0.10765 7.535974,-1.33325 l 3.337781,-0.73432 1.09399,0.90847 c 2.492343,2.07069 6.161765,4.21246 9.31416,5.43585 0.896244,0.34782 1.662706,0.68944 1.703256,0.75964 0.04055,0.0702 0.768858,2.33896 1.618505,5.04155 1.186152,3.77297 1.626959,4.98095 1.899109,5.20278 0.894714,0.72928 7.667067,1.02958 12.054045,0.53434 2.274723,-0.2568 2.375399,-0.28726 2.708365,-0.81752 0.19183,-0.3055 2.05579,-6.0196 2.95641,-9.06301 l 0.28163,-0.95188 1.41594,-0.56328 c 1.17927,-0.46914 2.45792,-1.072 3.71657,-1.73994 l -2.00143,-2.00143 c -0.94015,0.46479 -1.89255,0.88058 -2.84014,1.23662 -2.10286,0.79009 -2.32429,0.90368 -2.51767,1.29449 -0.11661,0.23566 -0.87149,2.51137 -1.677423,5.05706 h 5.17e-4 c -0.805938,2.54569 -1.572999,4.68738 -1.704805,4.75888 -0.680939,0.37065 -7.725397,0.40626 -10.134782,0.0512 -0.363787,-0.0536 -0.46816,-0.32313 -1.970423,-5.09426 l -1.585949,-5.03742 -0.720886,-0.33332 c -0.396467,-0.18309 -1.289768,-0.53823 -1.985409,-0.78961 -2.985728,-1.07892 -6.035649,-2.85382 -8.888346,-5.17281 -1.010429,-0.82139 -2.006156,-1.50367 -2.212268,-1.51567 -0.206113,-0.012 -2.585215,0.46521 -5.287016,1.0604 l -4.912362,1.0821 -0.51418,-0.58187 c -0.668385,-0.75576 -4.296975,-7.0397 -4.61729,-7.99642 l -0.246496,-0.73638 3.393591,-3.71347 c 1.866351,-2.04223 3.469543,-3.86458 3.562573,-4.04989 0.09303,-0.1853 0.01099,-1.26819 -0.182417,-2.40657 -0.643164,-3.78568 -0.646819,-7.42533 -0.01085,-10.97349 0.174075,-0.97117 0.289985,-1.94829 0.257865,-2.17144 -0.04211,-0.29256 -1.025773,-1.46303 -3.5264,-4.197161 -1.907304,-2.085402 -3.494927,-3.839209 -3.528467,-3.896919 -0.237193,-0.408139 4.528276,-8.698865 5.239991,-9.11624 0.128703,-0.07548 2.366233,0.329863 4.972306,0.90072 2.606072,0.570858 4.954803,1.054857 5.21932,1.075387 0.443806,0.03444 0.627828,-0.08372 2.383833,-1.526522 2.643456,-2.171959 5.903722,-4.053723 9.106421,-5.257043 2.118176,-0.795842 2.322492,-0.901699 2.515092,-1.299146 0.115293,-0.237925 0.869389,-2.513043 1.675867,-5.056022 0.806469,-2.542974 1.561318,-4.678417 1.677417,-4.745447 0.678739,-0.391867 7.656121,-0.434542 10.165788,-0.06201 0.364065,0.05404 0.468017,0.323197 1.970422,5.094779 l 1.585946,5.037419 0.72089,0.333313 c 0.39647,0.183083 1.29057,0.538157 1.98696,0.789099 1.14215,0.41157 2.4476,1.021995 3.75946,1.737878 1.5e-4,8.1e-5 3.7e-4,-8.1e-5 5.2e-4,0 l 2.00298,-2.003495 c -0.3906,-0.233681 -0.7496,-0.43892 -1.05472,-0.599447 -0.874,-0.459811 -2.38593,-1.149468 -3.35949,-1.532723 -0.97356,-0.383257 -1.80203,-0.752651 -1.84123,-0.820621 -0.0392,-0.06798 -0.7668,-2.33482 -1.61644,-5.037419 -1.18615,-3.77297 -1.62695,-4.980439 -1.899105,-5.202266 -0.640905,-0.522444 -4.011795,-0.778177 -7.35769,-0.772087 z m -0.578259,27.379724 c -5.67585,0.226867 -10.931271,3.371464 -13.7573,8.557619 -1.06311,1.95096 -1.931652,5.19289 -1.986442,7.41402 -0.18922,7.66971 4.977064,14.48187 12.390975,16.33957 1.977208,0.49543 3.931255,0.63889 5.858557,0.42994 L 91.7236,123.5537 c -2.388765,-0.13693 -4.664957,-0.90645 -6.751526,-2.29805 -2.1108,-1.40776 -2.85335,-2.21535 -4.218347,-4.58939 -1.368198,-2.37953 -1.70397,-3.45021 -1.865519,-5.94795 -0.202314,-3.12797 0.522167,-5.83101 2.261361,-8.43876 1.415867,-2.12295 2.208643,-2.848869 4.661214,-4.264861 1.763495,-1.018154 2.276914,-1.24418 3.392041,-1.494482 1.430407,-0.32107 2.847086,-0.433299 4.226615,-0.343132 l 2.402438,-2.402437 c -1.329912,-0.269196 -2.662039,-0.372231 -3.971851,-0.319877 z" /><ellipse
         style="fill:none;stroke:#000000;stroke-width:2.7;stroke-dasharray:none"
         id="path4"
         cx="120.79601"
         cy="87.255325"
         rx="3.6500001"
         ry="3.6621838" /><ellipse
         style="fill:none;stroke:#000000;stroke-width:2.7;stroke-dasharray:none"
         id="path4-2"
         cx="129.16341"
         cy="104.36808"
         rx="3.6500001"
         ry="3.6621838" /><ellipse
         style="fill:none;stroke:#000000;stroke-width:2.7;stroke-dasharray:none"
         id="path4-9"
         cx="129.92592"
         cy="138.59358"
         rx="3.6500001"
         ry="3.6621838" /><ellipse
         style="fill:none;stroke:#000000;stroke-width:2.7;stroke-dasharray:none"
         id="path4-3"
         cx="117.55109"
         cy="121.48083"
         rx="3.6500001"
         ry="3.6621838" /><path
         style="fill:none;stroke:#000000;stroke-width:2.69999;stroke-dasharray:none"
         d="M 95.045245,100.08708 H 107.06843 L 117.98288,89.230207"
         id="path7" /><path
         style="fill:none;stroke:#000000;stroke-width:2.69999;stroke-dasharray:none"
         d="m 83.152657,106.08575 h 31.021633 l 2.29338,-2.24346 8.91952,0.0918"
         id="path8" /><path
         style="fill:none;stroke:#000000;stroke-width:2.69999;stroke-dasharray:none"
         d="m 98.204573,112.08441 h 8.810877 l 7.2799,6.9835"
         id="path9" /><path
         style="fill:none;stroke:#000000;stroke-width:2.69999;stroke-dasharray:none"
         d="m 85.812538,118.08308 h 12.447623 l 18.937969,20.31467 h 9.82535"
         id="path10" /></g></g></svg>
